<svg width="200" height="200" viewBox="0 0 200 200" fill="none" xmlns="http://www.w3.org/2000/svg">
<circle cx="100" cy="100" r="100" fill="#2677F1"/>
<mask id="mask0_6_2" style="mask-type:alpha" maskUnits="userSpaceOnUse" x="0" y="0" width="200" height="200">
<circle cx="100" cy="100" r="100" fill="#2E7FCB"/>
</mask>
<g mask="url(#mask0_6_2)">
<path d="M100 -3L100 203" stroke="#5695F4" stroke-width="4"/>
<path d="M120 -3L120 203" stroke="#5695F4" stroke-width="4"/>
<path d="M140 -3L140 203" stroke="#5695F4" stroke-width="4"/>
<path d="M160 -3L160 203" stroke="#5695F4" stroke-width="4"/>
<path d="M180 -3L180 203" stroke="#5695F4" stroke-width="4"/>
<path d="M20 -3L20 203" stroke="#5695F4" stroke-width="4"/>
<path d="M200 -3L200 203" stroke="#5695F4" stroke-width="4"/>
<path d="M0 -3L-9.00455e-06 203" stroke="#5695F4" stroke-width="4"/>
<path d="M40 -3L40 203" stroke="#5695F4" stroke-width="4"/>
<path d="M60 -3L60 203" stroke="#5695F4" stroke-width="4"/>
<path d="M80 -3L80 203" stroke="#5695F4" stroke-width="4"/>
<path d="M202.5 100L-2.50001 100" stroke="#5695F4" stroke-width="4"/>
<path d="M202.5 120.098L-2.50001 120.098" stroke="#5695F4" stroke-width="4"/>
<path d="M202.5 140.195L-2.50001 140.195" stroke="#5695F4" stroke-width="4"/>
<path d="M202.5 160.293L-2.50001 160.293" stroke="#5695F4" stroke-width="4"/>
<path d="M202.5 180.39L-2.50001 180.39" stroke="#5695F4" stroke-width="4"/>
<path d="M202.5 19.6098L-2.50001 19.6098" stroke="#5695F4" stroke-width="4"/>
<path d="M202.5 200.488L-2.50001 200.488" stroke="#5695F4" stroke-width="4"/>
<path d="M202.5 -0.487793L-2.50001 -0.487811" stroke="#5695F4" stroke-width="4"/>
<path d="M202.5 39.7073L-2.50001 39.7073" stroke="#5695F4" stroke-width="4"/>
<path d="M202.5 59.8049L-2.50001 59.8049" stroke="#5695F4" stroke-width="4"/>
<path d="M202.5 79.9024L-2.50001 79.9024" stroke="#5695F4" stroke-width="4"/>
</g>
<path d="M59.6913 123.282L76.1459 116.635C74.8382 112.712 73.6577 108.734 72.6043 104.702C71.5509 100.671 70.6973 96.6568 70.0435 92.6612L59.6913 99.5263L59.6913 123.282ZM85.2994 115.327L114.286 115.327C116.538 109.297 118.281 103.268 119.516 97.2379C120.751 91.2082 121.369 85.9413 121.369 81.4372C121.369 69.6684 119.661 59.3162 116.247 50.3806C112.833 41.445 107.348 32.9816 99.7924 24.9905C92.2372 32.9816 86.7523 41.445 83.3379 50.3806C79.9235 59.3162 78.2163 69.6684 78.2163 81.4372C78.2163 85.9413 78.8338 91.2082 80.0688 97.2379C81.3038 103.268 83.0473 109.297 85.2994 115.327ZM99.7925 79.9116C96.8866 79.9116 94.3621 78.8401 92.219 76.697C90.0759 74.5539 89.0044 72.0294 89.0044 69.1235C89.0044 66.2177 90.0759 63.6932 92.219 61.5501C94.3621 59.407 96.8866 58.3354 99.7925 58.3354C102.698 58.3354 105.223 59.407 107.366 61.5501C109.509 63.6932 110.581 66.2177 110.581 69.1235C110.581 72.0294 109.509 74.5539 107.366 76.697C105.223 78.8401 102.698 79.9116 99.7925 79.9116ZM139.894 123.282L139.894 99.5263L129.541 92.6612C128.888 96.6568 128.034 100.671 126.981 104.702C125.927 108.734 124.747 112.712 123.439 116.635L139.894 123.282ZM99.7924 12.1319C110.326 21.3581 118.1 31.6013 123.112 42.8616C128.125 54.1219 130.631 66.9441 130.631 81.3282L130.631 81.7641L130.631 82.2L145.015 91.7894C146.323 92.6612 147.322 93.769 148.012 95.113C148.702 96.457 149.047 97.9281 149.047 99.5263L149.156 136.903L118.317 124.59L81.2675 124.59L50.4288 136.903L50.5378 99.5263C50.5378 97.9281 50.8828 96.457 51.573 95.113C52.2631 93.7691 53.262 92.6612 54.5697 91.7894L68.9538 82.2C68.9538 82.0547 68.9719 81.9276 69.0083 81.8186C69.0446 81.7096 69.0628 81.5825 69.0628 81.4372C69.0628 67.0531 71.5509 54.2127 76.5272 42.9161C81.5036 31.6195 89.2586 21.3581 99.7924 12.1319V12.1319ZM80.1778 152.05C80.1778 146.965 81.9939 142.57 85.6263 138.865C89.2586 135.16 93.6175 133.307 98.7028 133.307C103.788 133.307 108.147 135.16 111.779 138.865C115.412 142.57 117.228 146.965 117.228 152.05C117.228 155.828 115.866 160.314 113.141 165.508C110.417 170.702 105.641 177.804 98.8117 186.812C91.9829 177.804 87.17 170.702 84.3731 165.508C81.5762 160.314 80.1778 155.828 80.1778 152.05V152.05ZM89.4403 152.159C89.5129 154.266 90.312 156.881 91.8376 160.005C93.3632 163.129 95.6516 166.797 98.7028 171.011C101.754 166.797 104.042 163.129 105.568 160.005C107.094 156.881 107.893 154.266 107.965 152.159C108.111 149.544 107.275 147.292 105.459 145.403C103.643 143.514 101.391 142.533 98.7028 142.461C96.0148 142.533 93.7628 143.514 91.9466 145.403C90.1304 147.292 89.295 149.544 89.4403 152.159Z" fill="white"/>
</svg>
